<?xml version="1.0" encoding="UTF-8"?>
<!-- Generator: Adobe Illustrator 22.1.0, SVG Export Plug-In . SVG Version: 6.00 Build 0)  -->
<svg version="1.1" id="图层_1" xmlns="http://www.w3.org/2000/svg" xmlns:xlink="http://www.w3.org/1999/xlink" x="0px" y="0px" viewBox="0 0 56.6 64.5" style="enable-background:new 0 0 56.6 64.5;" xml:space="preserve">
<style type="text/css">
	.st0{fill:#4E4D4F;}
	.st1{fill-rule:evenodd;clip-rule:evenodd;fill:#0071B5;}
	.st2{fill-rule:evenodd;clip-rule:evenodd;fill:#0082C4;}
	.st3{fill:#2F83BB;}
	.st4{fill:#F1F2F3;}
	.st5{fill:#FFFFFF;}
</style>
<polyline class="st0" points="0,0 56.6,0 51.5,57.8 28.5,64.5 4.7,57.8 "/>
<polyline class="st0" points="28.5,5.6 28.5,58.9 47.5,53.4 51.7,5.6 "/>
<polyline class="st0" points="37,33.2 28.5,33.2 28.5,44.1 36,42.7 "/>
<polyline class="st0" points="10.1,12.3 11.1,19.3 28.1,19.3 11.4,26.6 12.3,33.2 28.5,33.2 28.5,12.3 "/>
<polyline class="st0" points="20.2,42.4 19.6,37 12.6,37 13.6,48.1 28.5,52.2 28.5,52.2 28.5,44.1 "/>
<polyline class="st0" points="44.6,26 29.3,26 45.9,19.2 45.9,12.3 28.5,12.3 28.5,33.2 37,33.2 36,42.7 28.5,44.1 28.5,52.2   42.7,47.7 "/>
<polyline class="st1" points="0,0 56.6,0 51.5,57.8 28.5,64.5 4.7,57.8 "/>
<polyline class="st2" points="28.5,5.6 28.5,58.9 47.5,53.4 51.7,5.6 "/>
<polyline class="st3" points="37,33.2 28.5,33.2 28.5,44.1 36,42.7 "/>
<polyline class="st4" points="10.1,12.3 11.1,19.3 28.1,19.3 11.4,26.6 12.3,33.2 28.5,33.2 28.5,12.3 "/>
<polyline class="st4" points="20.2,42.4 19.6,37 12.6,37 13.6,48.1 28.5,52.2 28.5,52.2 28.5,44.1 "/>
<polyline class="st5" points="44.6,26 29.3,26 45.9,19.2 45.9,12.3 28.5,12.3 28.5,33.2 37,33.2 36,42.7 28.5,44.1 28.5,52.2   42.7,47.7 "/>
</svg>