<?xml version="1.0" encoding="UTF-8"?>
<!-- Generator: Adobe Illustrator 22.1.0, SVG Export Plug-In . SVG Version: 6.00 Build 0)  -->
<svg version="1.1" id="Capa_1" xmlns="http://www.w3.org/2000/svg" xmlns:xlink="http://www.w3.org/1999/xlink" x="0px" y="0px" viewBox="0 0 410 235.2" style="enable-background:new 0 0 410 235.2;" xml:space="preserve">
<style type="text/css">
	.st0{fill:#1A1918;}
	.st1{fill:#21609B;}
</style>
<g>
	<g>
		<path class="st0" d="M387.8,127.9l21.4,0.1c0,0-39.8,54-43.1,58.4c-1.1,1.4-2.7,3-3.5,4.9c-2.1,4.8-4.2,15.3-4.2,15.3l-19.6,0.1    c0,0,3-10.9,2.9-16.8c-0.1-5.1-2.7-10.2-4.2-15.3c-1.5-5.2-3.5-15.3-3.5-15.3h20.1l2.8,11.1L387.8,127.9"/>
		<path class="st0" d="M347.2,139.3c4,2.4,6.4,15.5,6.4,15.5s-20.7,0.3-31.9,0.3h-9.7l-11.8,51.4H282c0,0,11.2-55.9,13.9-66    c0.9-3.3,5.9-2.7,14.4-2.7h13.6C332.6,137.8,342.9,136.7,347.2,139.3"/>
		<path class="st0" d="M263.1,164.3c0,0,0.6-3.3-1.9-7.1c-2.1-3.3-4.1-4-9.6-4.2c-15.7-0.5-15.4,11.1-15.4,11.1L263.1,164.3    L263.1,164.3z M280.1,151c2.3,8.3-2.1,27.8-2.1,27.8s-22.9-0.4-35.4,0c-3.9,0.1-8.6-0.4-9.7,1.4c-1.6,2.5,0.6,6.5,2.5,8.1    c2.2,1.9,6.4,2.1,7.9,2.3c10.2,1.3,31.5,0.3,31.5,0.3l-3.7,16.3c0,0-30.1,1.5-45.2-2.1c-3-0.7-5.8-2.1-7.6-4.2    c-0.5-0.6-1-1.3-1.4-2c-0.4-0.5-1.5-2.2-2-3.6c-3.4-9.2,0.4-26.7,4.2-36.1c0.4-1.1,1-2.5,1.6-3.6c0.7-1.5,1.3-3.1,1.9-4    c0.4-0.6,0.9-1,1.3-1.6c0.5-0.7,1-1.3,1.5-1.9c1.4-1.6,3-2.8,4.9-4.2c6.3-4.7,17.6-8.3,31.3-6.9c5.1,0.5,12.9,2.4,16.7,7.6    C279,146.2,279.5,149,280.1,151L280.1,151L280.1,151z"/>
		<path class="st0" d="M197.3,137.7l17.5-0.1c0,0-9.8,46.3-14.7,68.9h-20.1c-14.1,0-26.6,1.7-32-8.3c-5.2-9.8-0.2-25.9,2.1-36.8    c1.6-7.7,5.1-23.6,5.1-23.6l18.1-0.2c0,0-5.1,24.6-7.3,36.9c-0.8,4.4-2.3,8.6-0.7,11.8c1.6,3.1,3.8,3.3,10.4,3.5c2.1,0,9,0,9,0    L197.3,137.7"/>
		<path class="st0" d="M115.3,171.1c1.8-6.5,4.5-13.6,4.2-19.5c-0.4-6.3-5.6-12-9-13.2c-10.2-3.6-19.8,1.4-23.6,5.6    c-4.9,5.3-6.6,11.6-8.3,20.1c-1.3,6.4-2.4,13.1,0,18.1c4.2,8.8,17.2,6.9,31.3,6.9C111.8,183.6,113.5,177.3,115.3,171.1    L115.3,171.1L115.3,171.1z M139.6,145.4c2,14.5-5.7,30.6-11,44.6c5.4,0.5,10.1-0.1,10.5,0.3c0.4,0.5-3.6,16.7-5,16.7    c-4.3,0.1-18.5,0.2-24.4,0.2c-19.3,0-37.3,1.3-46.5-8.3c-3.7-3.9-6.3-10.6-6.9-15.3c-1-7.9,0.3-16.5,2.1-23.6    c1.6-6.4,3.8-12.5,6.9-18.1c8.1-14.2,22.2-24.7,45.9-22.2c4.6,0.5,11.2,2.5,15.3,4.9c0.3,0.2,1.3,1,1.5,1.1    C133.5,129.2,138.5,137.6,139.6,145.4L139.6,145.4L139.6,145.4z"/>
		<path class="st0" d="M54.2,137.8c-1.2,5.3-2.3,11.3-3.6,16.6H31.2c1.5-5.8,2.7-11.6,4.2-16.7C41.6,137.7,47.4,137.8,54.2,137.8"/>
		<path class="st0" d="M30.5,159.3h18.8c-2.5,13.6-7.3,35.5-11.1,50.7c-2.4,9.5-4,16.5-10.4,21.5c-0.6,0.5-0.9,0.2-1.4,0.7    c-1.2,1.1-6.7,2.4-9.7,2.8c-4.9,0.5-10.5,0.1-16.6-0.1c1.6-5.8,3.4-12.8,4.8-18c14.8,1.8,15.2-12.2,18.1-25.7    C24.5,183.4,29.6,162.4,30.5,159.3"/>
		<g transform="translate(0.000000, 8.827586)">
			<path class="st1" d="M249.7,71.6l-0.5,1.3c-8.3,16.3-23.1,26.2-44.2,26.7c-9.9,0.2-19.3-2.3-25.4-5.1c-13.2-6-24.4-17-30.5-28.8     c-8.7-16.9-10.3-40.4,7.8-58c0.3,0-2.2,3.8-1.9,3.8l-0.5,1.6c-13.1,40.9,27.2,76,66.4,72C230.3,84.2,242.3,79.1,249.7,71.6"/>
			<path class="st1" d="M225.9,54.7c9.9,0.1,20.1-4.5,26.2-11c-5.3,13.5-20.8,22.2-41.5,19.5c-17.3-2.3-33.9-19.8-35.6-37.2     c-1.2-12.7,3.2-20.3,10.5-29.5c-2.5,4.8-3.5,8.5-3.7,10.9C179.2,34.8,203.9,54.6,225.9,54.7"/>
			<path class="st1" d="M251.2,20.5c-1.5,3.5-10.4,10.1-14.2,11c-15.4,3.3-25.3-4-30.5-12.4c-0.8-1.2-2.2-4.6-2.4-5.5     c-2-6.8-1.1-17.1,4.9-22.5c-1.8,5.1-2.1,11-1.1,14.8c0.6,2.3,2.3,6.4,4.1,8.9c3.2,4.6,5.2,5.8,9.3,8.2c1.8,1.1,3.8,2,4.7,2.2     C229.8,26.5,238,29.5,251.2,20.5"/>
		</g>
	</g>
</g>
</svg>