<?xml version="1.0" encoding="utf-8"?>
<!-- Generator: Adobe Illustrator 23.0.1, SVG Export Plug-In . SVG Version: 6.00 Build 0)  -->
<svg version="1.1" id="Capa_1" xmlns="http://www.w3.org/2000/svg" xmlns:xlink="http://www.w3.org/1999/xlink" x="0px" y="0px"
	 viewBox="0 0 627 490.7" style="enable-background:new 0 0 627 490.7;" xml:space="preserve">
<style type="text/css">
	.st0{enable-background:new    ;}
	.st1{fill:#E25610;}
	.st2{fill:none;stroke:#000000;stroke-width:12;stroke-miterlimit:10;}
	.st3{fill:#0BD8DD;}
</style>
<g>
	<g>
		<path d="M359.5,67.1c-4.2-4.2-10.9-4.2-15.1,0L67.1,344.5c-4.2,4.2-4.2,10.9,0,15.1c2.1,2.1,4.8,3.1,7.6,3.1s5.5-1,7.5-3.1
			L359.5,82.2C363.7,78.1,363.7,71.3,359.5,67.1z"/>
	</g>
</g>
<g>
	<g>
		<circle cx="213.3" cy="213.3" r="21.3"/>
	</g>
</g>
<g>
	<g>
		<path d="M565.6,149.3H419.3c-80.6-0.3-156.5-0.6-213.5,56.5s-56.8,133-56.5,213.5v18c0,5.9,4.8,10.7,10.7,10.7s10.7-4.8,10.7-10.7
			v-18.1c-0.3-79.2-0.5-147.6,50.2-198.3s119.1-50.5,198.3-50.2h146.4c5.9,0,5.5-4.8,5.5-10.7S571.4,149.3,565.6,149.3z"/>
	</g>
</g>
<g class="st0">
	<path d="M300.4,416.6c-8.2-2.5-14.9-5.8-20-10c-2.8-2-4.1-4.9-4.1-8.6c0-2.5,0.7-4.7,2.2-6.6c1.5-1.9,3.3-2.8,5.3-2.8
		c2.2,0,4.6,0.8,7.4,2.5c5.2,3.7,10.5,6.4,16.2,8.1c5.6,1.7,11.9,2.5,18.7,2.5c8.7,0,15.5-1.5,20.1-4.6c4.7-3.1,7-7.5,7-13.4
		c0-4.6-2.2-8.1-6.6-10.5c-4.4-2.5-11.7-4.8-21.8-7.1c-10.5-2.3-19.1-4.9-25.7-7.9c-6.6-3-11.6-6.8-14.9-11.5
		c-3.4-4.7-5-10.6-5-17.8c0-7.4,2.1-14.1,6.3-20c4.2-5.9,10-10.5,17.5-13.8c7.5-3.3,15.9-4.9,25.3-4.9c17.1,0,31.1,4.6,41.9,13.7
		c1.6,1.3,2.7,2.6,3.3,3.9c0.7,1.3,1,2.8,1,4.8c0,2.5-0.8,4.7-2.2,6.6c-1.5,1.9-3.3,2.8-5.3,2.8c-1.2,0-2.3-0.2-3.3-0.5
		c-1-0.4-2.4-1-4-2c-4.9-3.6-9.7-6.3-14.3-8c-4.6-1.7-10.3-2.6-17-2.6c-8.2,0-14.6,1.6-19.3,4.9c-4.7,3.3-7.1,7.9-7.1,13.8
		c0,4.9,2.1,8.7,6.3,11.3c4.2,2.6,11.3,5.1,21.4,7.4c10.7,2.4,19.3,5.1,26,8c6.7,2.9,11.7,6.7,15.3,11.2c3.5,4.6,5.3,10.2,5.3,17.1
		c0,7.4-2.1,14-6.2,19.7c-4.1,5.7-9.9,10.1-17.4,13.3c-7.5,3.2-16.1,4.8-25.8,4.8C317.3,420.3,308.6,419.1,300.4,416.6z"/>
	<path d="M496.8,290.8c3,0,5.7,1,8.1,2.9c2.4,1.9,3.6,4.3,3.6,7.2c0,1.3-0.4,2.8-1.1,4.5l-49.8,107.2c-1.1,2.3-2.7,4-4.9,5.3
		c-2.2,1.3-4.6,1.9-7.1,1.9c-2.5,0-4.9-0.6-7.1-1.9c-2.2-1.3-3.9-3-4.9-5.3l-49.6-107.2c-0.7-1.7-1.1-3.1-1.1-4.3
		c0-3,1.2-5.5,3.7-7.4c2.5-1.9,5.2-2.9,8.4-2.9c2,0,3.9,0.5,5.7,1.5c1.7,1,3.1,2.5,4,4.6l41.4,91.9l41.3-91.9
		C489.2,292.9,492.3,290.8,496.8,290.8z"/>
	<path d="M623.4,352.6c1.7,1.6,2.5,3.7,2.5,6.4v38.7c0,5.5-0.7,9.4-2.2,11.7c-1.4,2.3-4.4,4.1-8.8,5.6c-4.8,1.7-10.4,3-16.7,4
		c-6.4,1-12.5,1.4-18.3,1.4c-13.1,0-24.4-2.6-34-7.7c-9.6-5.2-16.9-12.6-22-22.4c-5.1-9.8-7.6-21.4-7.6-35c0-13.3,2.5-24.8,7.6-34.6
		c5.1-9.8,12.3-17.3,21.7-22.5s20.4-7.8,33.1-7.8c16.9,0,30.7,4.6,41.5,13.7c1.4,1.3,2.5,2.6,3.1,4c0.7,1.3,1,2.9,1,4.7
		c0,2.6-0.7,4.9-2.2,6.7s-3.2,2.7-5.2,2.7c-1.3,0-2.5-0.2-3.6-0.6c-1.1-0.4-2.3-1.1-3.8-2.1c-5.3-3.7-10.2-6.3-14.7-7.8
		c-4.6-1.5-9.7-2.2-15.5-2.2c-13.1,0-22.9,3.9-29.6,11.6c-6.7,7.7-10,19.2-10,34.4c0,31.2,13.7,46.7,41,46.7
		c8.1,0,16.3-1.1,24.5-3.4v-31.8h-20.3c-2.9,0-5.1-0.7-6.7-2.2c-1.6-1.4-2.4-3.5-2.4-6.1c0-2.6,0.8-4.7,2.4-6.1
		c1.6-1.4,3.9-2.2,6.7-2.2h31.8C619.5,350.2,621.7,351,623.4,352.6z"/>
</g>
<g>
	<rect x="568.8" y="133.6" class="st1" width="51.2" height="51.2"/>
	<path class="st2" d="M616,184.7h-43.2c-2.1,0-3.9-1.7-3.9-3.9v-43.2c0-2.1,1.7-3.9,3.9-3.9H616c2.1,0,3.9,1.7,3.9,3.9v43.2
		C619.8,182.9,618.1,184.7,616,184.7z"/>
</g>
<g>
	<rect x="134.8" y="432.6" class="st1" width="51.2" height="51.2"/>
	<path class="st2" d="M182,483.7h-43.2c-2.1,0-3.9-1.7-3.9-3.9v-43.2c0-2.1,1.7-3.9,3.9-3.9H182c2.1,0,3.9,1.7,3.9,3.9v43.2
		C185.8,481.9,184.1,483.7,182,483.7z"/>
</g>
<g>
	<circle class="st3" cx="377" cy="49.7" r="30.1"/>
	<circle class="st2" cx="377" cy="49.7" r="30.1"/>
</g>
<g>
	<circle class="st3" cx="51" cy="376.7" r="30.1"/>
	<circle class="st2" cx="51" cy="376.7" r="30.1"/>
</g>
</svg>
