<?xml version="1.0" encoding="UTF-8"?>
<!-- Generator: Adobe Illustrator 23.0.1, SVG Export Plug-In . SVG Version: 6.00 Build 0)  -->
<svg version="1.1" id="Capa_1" xmlns="http://www.w3.org/2000/svg" xmlns:xlink="http://www.w3.org/1999/xlink" x="0px" y="0px" viewBox="0 0 27.3 23.4" style="enable-background:new 0 0 27.3 23.4;" xml:space="preserve">
<style type="text/css">
	.st0{fill:#FF6159;}
	.st1{fill:#FFBE39;}
	.st2{fill:#29CD42;}
	.st3{fill:#FFFFFF;}
</style>
<g>
	<path d="M25.3,0H1.9C0.9,0,0,0.9,0,2v19.5c0,1.1,0.9,1.9,1.9,1.9h23.4c1.1,0,1.9-0.9,1.9-1.9V2C27.3,0.9,26.4,0,25.3,0z M9.3,1.5   c0.5,0,1,0.4,1,1c0,0.5-0.4,1-1,1s-1-0.4-1-1S8.8,1.5,9.3,1.5z M6.3,1.5c0.5,0,1,0.4,1,1c0,0.5-0.4,1-1,1s-1-0.4-1-1   C5.4,1.9,5.8,1.5,6.3,1.5z M3.4,1.5c0.5,0,1,0.4,1,1c0,0.5-0.4,1-1,1c-0.5,0-1-0.4-1-1S2.9,1.5,3.4,1.5z"/>
</g>
<circle class="st0" cx="3.4" cy="2.5" r="1"/>
<circle class="st1" cx="6.3" cy="2.5" r="1"/>
<circle class="st2" cx="9.3" cy="2.5" r="1"/>
<path class="st3" d="M9.2,17.6l-6.8,3.5v-1l5.8-2.9l0,0l-5.8-2.9v-1l6.8,3.5V17.6z"/>
<path class="st3" d="M14.2,20.3v0.9h-3.7v-0.9H14.2z"/>
</svg>